<svg width="101" height="26" viewBox="0 0 101 26" fill="none" xmlns="http://www.w3.org/2000/svg">
<path d="M82.376 6.25241V2.48828H101V6.25241H93.8975V25.4004H89.5115V6.25241H82.376Z" fill="white"/>
<path d="M73.8233 25.7601C72.143 25.7601 70.5065 25.5092 68.9135 25.0073C67.3424 24.4836 66.0877 23.818 65.1494 23.0106L66.6551 19.5411C67.5497 20.283 68.6408 20.8831 69.9282 21.3413C71.2375 21.7996 72.5467 22.0287 73.856 22.0287C75.4053 22.0287 76.5618 21.7668 77.3255 21.2431C78.0893 20.7194 78.4711 20.0321 78.4711 19.1811C78.4711 18.5264 78.2529 18.0027 77.8165 17.6099C77.3801 17.2172 76.8346 16.9117 76.1799 16.6935C75.5471 16.4534 74.6197 16.1807 73.3978 15.8752C71.7612 15.4824 70.4192 15.0787 69.3718 14.6641C68.3462 14.2277 67.4624 13.5621 66.7205 12.6675C65.9786 11.7728 65.6077 10.5727 65.6077 9.06702C65.6077 7.77957 65.935 6.61215 66.5896 5.56474C67.2661 4.51733 68.2698 3.68813 69.6009 3.07714C70.932 2.44433 72.5576 2.12793 74.4779 2.12793C75.8526 2.12793 77.1837 2.31341 78.4711 2.68437C79.7804 3.0335 80.9151 3.53539 81.8752 4.19002L80.5005 7.69229C79.5404 7.0813 78.5366 6.62306 77.4892 6.31757C76.4636 6.01207 75.4598 5.85932 74.4779 5.85932C72.9504 5.85932 71.8157 6.143 71.0738 6.71034C70.3319 7.25587 69.9609 7.96505 69.9609 8.83789C69.9609 9.4707 70.1792 9.99441 70.6156 10.409C71.052 10.8018 71.5975 11.1182 72.2522 11.3582C72.9286 11.5764 73.8451 11.8274 75.0016 12.111C76.6818 12.5256 78.0238 12.9402 79.0276 13.3548C80.0532 13.7694 80.9369 14.4241 81.6788 15.3187C82.4208 16.1916 82.7917 17.3699 82.7917 18.8537C82.7917 20.1194 82.4535 21.2759 81.777 22.3233C81.1224 23.3707 80.1186 24.2108 78.7657 24.8436C77.4128 25.4546 75.7653 25.7601 73.8233 25.7601Z" fill="white"/>
<path d="M64.1979 25.4004H47.7012V2.48828H63.7724V6.18695H52.0545V11.9804H62.4304V15.5809H52.0545V21.669H64.1979V25.4004Z" fill="white"/>
<path d="M44.2921 13.6822V22.8143C43.1574 23.7526 41.8264 24.4836 40.2989 25.0073C38.7932 25.5092 37.2549 25.7601 35.6837 25.7601C33.458 25.7601 31.4396 25.2582 29.6284 24.2544C27.8391 23.2289 26.4316 21.8214 25.406 20.0321C24.4023 18.2209 23.9004 16.1916 23.9004 13.944C23.9004 11.6746 24.4132 9.64527 25.4388 7.85595C26.4644 6.06662 27.8718 4.67008 29.6611 3.66631C31.4723 2.64072 33.5126 2.12793 35.7819 2.12793C37.6367 2.12793 39.3169 2.45525 40.8226 3.10988C42.3282 3.74269 43.5939 4.68099 44.6195 5.92479L41.8373 8.67424C40.2443 6.92855 38.2914 6.05571 35.9783 6.05571C34.4945 6.05571 33.1634 6.39394 31.9851 7.07039C30.8286 7.74684 29.923 8.68515 29.2684 9.8853C28.6356 11.0636 28.3191 12.4165 28.3191 13.944C28.3191 15.4497 28.6356 16.8026 29.2684 18.0027C29.923 19.2029 30.8286 20.1412 31.9851 20.8176C33.1416 21.4723 34.4618 21.7996 35.9456 21.7996C37.604 21.7996 39.0442 21.3959 40.2662 20.5885V13.6822H44.2921Z" fill="white"/>
<path d="M19.2874 12.1436V15.7113H10.188V12.1436H19.2874Z" fill="white"/>
<path d="M2.68399 5.10612C1.89843 5.10612 1.25471 4.86609 0.752825 4.38602C0.250942 3.88414 0 3.27315 0 2.55306C0 1.83297 0.250942 1.23289 0.752825 0.752825C1.25471 0.250942 1.89843 0 2.68399 0C3.46954 0 4.11326 0.240031 4.61515 0.720094C5.11703 1.17834 5.36797 1.75659 5.36797 2.45487C5.36797 3.2186 5.11703 3.85141 4.61515 4.35329C4.13508 4.85518 3.49136 5.10612 2.68399 5.10612ZM4.81154 7.8883V25.3997H0.556436V7.8883H4.81154Z" fill="#AD1455"/>
</svg>
